<mxfile host="app.diagrams.net" modified="2023-11-20T19:58:43.687Z" agent="Mozilla/5.0 (Windows NT 10.0; Win64; x64) AppleWebKit/537.36 (KHTML, like Gecko) Chrome/119.0.0.0 Safari/537.36" version="22.1.3" etag="2vp78sGqKS0mVSudv7_6" type="github">
  <diagram name="PÃ¡gina-1" id="cz21VLSMtNsFb6B1QpC5">
    <mxGraphModel>
      <root>
        <mxCell id="0" />
        <mxCell id="1" parent="0" />
      </root>
    </mxGraphModel>
  </diagram>
</mxfile>
